<svg width="14" height="14" viewBox="0 0 14 14" fill="none" xmlns="http://www.w3.org/2000/svg">
<path d="M13.9999 6.95709C13.9835 5.62311 13.5862 4.32159 12.8549 3.20581C12.1236 2.09003 11.0887 1.20646 9.87203 0.659155C8.65531 0.111853 7.30759 -0.0763827 5.98753 0.116604C4.66749 0.3096 3.43007 0.875776 2.42101 1.74848C1.41195 2.62118 0.673281 3.76405 0.291989 5.04249C-0.0892947 6.32094 -0.0973276 7.6817 0.268853 8.96457C0.635034 10.2474 1.36017 11.3989 2.35886 12.2835C3.35754 13.168 4.58821 13.7488 5.90589 13.9573V8.9959H4.15585V6.95709H5.90589V5.40829C5.86538 5.04819 5.9044 4.68355 6.02025 4.34016C6.13611 3.99676 6.3259 3.68298 6.57625 3.42095C6.82659 3.15892 7.13136 2.95503 7.46912 2.82368C7.80688 2.69232 8.1694 2.63669 8.53096 2.66074C9.05581 2.66792 9.57942 2.71473 10.0973 2.80074V4.55079H9.22223C9.07138 4.53176 8.91808 4.54688 8.77387 4.59504C8.62958 4.64319 8.49798 4.72314 8.38877 4.82898C8.27957 4.93483 8.19557 5.06386 8.14298 5.20651C8.0903 5.34923 8.07044 5.50192 8.0847 5.6533V6.97459H10.0273L9.71225 9.0134H8.09345V13.9135C9.74716 13.652 11.2524 12.8064 12.336 11.5301C13.4196 10.2537 14.0099 8.63136 13.9999 6.95709Z" fill="#F5F5EB"/>
</svg>
